# xmcd CD database file
#
# Track frame offsets:
#	150
#	23120
#	42135
#	55916
#	76541
#	94664
#	118435
#	142763
#	166940
#	180323
#	202082
#	226763
#	253740
#	267290
#	288036
#	300629
#
# Disc length: 4211 seconds
#
# Revision: 2
# Processed by: cddbd v1.5.1PL0 Copyright (c) Steve Scherf et al.
# Submitted via: CDex 1.51
#
DISCID=c9107110
DTITLE=Memphis PC - Hattrick
DYEAR=2005
DGENRE=Jazz
TTITLE0=Big Easy
TTITLE1=Brotherhood Of Man
TTITLE2=Somebody Loves Me
TTITLE3=Funghii Mama
TTITLE4=Montmatre
TTITLE5=Pink Panther Theme
TTITLE6=Till the Hurt Goes Away
TTITLE7=The Sidewinder
TTITLE8=Misirlou
TTITLE9=Mood Indigo
TTITLE10=Cool Down
TTITLE11=Softly As In A Morning Sunrise
TTITLE12=Old Folks At Home
TTITLE13=It´s Only A Papermoon
TTITLE14=Jerry Breakdown
TTITLE15=I Can´t Help Falling In Love With You
EXTD=YEAR: 2005
EXTT0=
EXTT1=
EXTT2=
EXTT3=
EXTT4=
EXTT5=
EXTT6=
EXTT7=
EXTT8=
EXTT9=
EXTT10=
EXTT11=
EXTT12=
EXTT13=
EXTT14=
EXTT15=
PLAYORDER=
